<svg xmlns="http://www.w3.org/2000/svg" xmlns:xlink="http://www.w3.org/1999/xlink" width="16" height="16" viewBox="0 0 16 16">
  <defs>
    <clipPath id="clip-Attachment">
      <rect width="16" height="16"/>
    </clipPath>
  </defs>
  <g id="Attachment" clip-path="url(#clip-Attachment)">
    <path id="attach" d="M67.225,68.154c-.045.269-.079.541-.138.806a4.8,4.8,0,0,1-1.336,2.374q-2.915,2.919-5.831,5.837a.711.711,0,0,1-1.17-.122.668.668,0,0,1,.077-.755,1.834,1.834,0,0,1,.152-.164q2.874-2.875,5.75-5.749a3.476,3.476,0,0,0,1.012-1.794,3.495,3.495,0,0,0-5.91-3.193q-2.933,2.932-5.864,5.866a2.088,2.088,0,0,0,.8,3.5,2.024,2.024,0,0,0,2.036-.425c.053-.045.1-.094.152-.144q2.653-2.653,5.306-5.3a.726.726,0,0,0,.242-.752.692.692,0,0,0-1.092-.362,1.723,1.723,0,0,0-.165.151q-1.707,1.706-3.414,3.413a.7.7,0,0,1-1.1-.86,1.233,1.233,0,0,1,.119-.134q1.733-1.734,3.467-3.466A2.1,2.1,0,0,1,63.4,69.718c-.057.063-.115.124-.175.184q-2.626,2.627-5.251,5.254a3.53,3.53,0,0,1-2.171,1.088,3.35,3.35,0,0,1-2.639-.8,3.5,3.5,0,0,1-.19-5.177q2.934-2.932,5.866-5.865A4.707,4.707,0,0,1,61.4,63.04a4.778,4.778,0,0,1,4.561,1.523A4.694,4.694,0,0,1,67.2,67.41a1.16,1.16,0,0,0,.022.116Z" transform="translate(-51.574 -62.187)"/>
  </g>
</svg>
