<svg width="22" height="17" viewBox="0 0 22 17" fill="none" xmlns="http://www.w3.org/2000/svg">
<g id="Layer_1">
<g clip-path="url(#clip0_866_8172)">
<path id="Vector" d="M21.4853 3.9832C21.4774 3.48057 21.2606 3.28554 20.7491 3.25718C20.1546 3.22368 19.5557 3.25375 18.9585 3.25632C18.1428 3.25632 17.3262 3.25632 16.5104 3.25632H15.8984C15.8984 3.05785 15.908 2.89288 15.8967 2.7305C15.8731 2.38596 15.8871 2.02939 15.7988 1.69946C15.6152 1.00867 14.9122 0.528377 14.3247 0.548998C14.2565 0.532673 14.1874 0.500883 14.1192 0.500883C13.5317 0.499164 12.945 0.50346 12.3575 0.506038C11.498 0.506038 10.6377 0.506038 9.77827 0.506038C9.13741 0.506038 8.49566 0.506038 7.8548 0.506038C7.69305 0.5258 7.5278 0.532673 7.36955 0.568759C6.69809 0.722555 6.07558 1.45975 6.10443 2.19779C6.11667 2.49765 6.10443 2.79751 6.10793 3.09737C6.1088 3.1936 6.10006 3.26835 5.97503 3.25632C5.40673 3.25632 4.83843 3.25632 4.27013 3.25632H2.52152C2.09923 3.25375 1.67694 3.24945 1.25465 3.24945C0.797383 3.24945 0.51061 3.52783 0.51061 3.97203C0.51061 5.51085 0.52285 7.04967 0.501866 8.58849C0.495746 9.01122 0.667985 9.27757 1.0282 9.45113C1.17596 9.52244 1.21268 9.61953 1.21268 9.77247C1.20831 11.5115 1.21705 13.2514 1.20831 14.9904C1.20394 15.8796 1.93223 16.7509 2.82753 16.9502C2.91146 16.9665 2.99539 16.9974 3.07845 16.9974C3.76741 16.9992 4.45549 16.9949 5.14444 16.9931H7.33021C8.08824 16.9931 8.84626 16.9931 9.60341 16.9931H11.8329C12.43 16.9931 13.0281 16.9931 13.6252 16.9931H15.5487C16.1607 16.9931 16.7727 16.9931 17.3848 16.9931C17.8674 16.9949 18.3509 17.0086 18.8335 16.9931C19.0092 16.988 19.1823 16.915 19.3563 16.8737C19.7681 16.7509 20.0925 16.5137 20.3591 16.1804C20.687 15.7705 20.7867 15.2928 20.7902 14.7979C20.8024 13.1379 20.8007 11.4771 20.7876 9.81629C20.7858 9.59891 20.8531 9.47604 21.042 9.39442C21.3349 9.26726 21.4888 9.03184 21.4905 8.72854C21.4984 7.14676 21.5097 5.56498 21.4853 3.9832ZM7.51906 2.15483C7.5278 2.05259 7.67993 1.96238 7.76562 1.867C8.43621 1.867 9.1068 1.867 9.77652 1.86615C10.636 1.86615 11.4963 1.86615 12.3557 1.86615C12.8917 1.86872 13.4268 1.86872 13.9627 1.8756C14.0825 1.87731 14.2023 1.90395 14.3221 1.91942C14.3806 2.05431 14.4777 2.18663 14.4899 2.32582C14.5161 2.6231 14.4978 2.92382 14.4978 3.23828C14.4182 3.24515 14.3483 3.25117 14.2792 3.25632C13.6383 3.25632 12.9966 3.25632 12.3557 3.25632C11.6126 3.25632 10.8694 3.25632 10.1262 3.25632H7.50682C7.50682 2.87656 7.48846 2.51312 7.51906 2.15483ZM19.3895 14.8134C19.3878 14.9947 19.3056 15.1759 19.2601 15.3572C19.0643 15.5402 18.8413 15.6365 18.5616 15.6279C18.1699 15.6159 17.7764 15.6287 17.3839 15.6313C16.7719 15.6313 16.1598 15.6313 15.5478 15.6313C14.907 15.6313 14.2652 15.6313 13.6244 15.6313C13.0272 15.6313 12.4292 15.6313 11.832 15.6313C11.0889 15.6313 10.3457 15.6313 9.60254 15.6313C8.84451 15.6313 8.08649 15.6313 7.32934 15.6313H5.14357C4.51931 15.6287 3.89593 15.6339 3.27167 15.6176C3.13965 15.6141 3.01026 15.536 2.87998 15.4913C2.66141 15.3057 2.60021 15.0711 2.60283 14.7893C2.61419 13.3235 2.60982 11.8569 2.6107 10.3902C3.09419 10.6738 3.57418 10.9633 4.06117 11.24C4.28675 11.368 4.49658 11.5579 4.79297 11.4909C5.46356 11.4909 6.13328 11.4909 6.80388 11.4909C7.38617 11.4952 7.96846 11.4986 8.55075 11.5029C8.55075 11.8242 8.56299 12.1456 8.55075 12.466C8.53413 12.8647 8.64517 13.2204 8.88735 13.5349C9.2091 13.9516 9.61915 14.2222 10.1708 14.236C10.7243 14.2377 11.2786 14.2394 11.832 14.2411C11.9229 14.2283 12.0174 14.2265 12.1039 14.2008C12.8182 13.986 13.3017 13.5486 13.4014 12.7968C13.4512 12.4188 13.439 12.0322 13.4477 11.649C13.4504 11.5519 13.4574 11.4797 13.5806 11.4909C14.2652 11.4909 14.9507 11.4909 15.6353 11.4909L17.3848 11.4848C17.4888 11.4453 17.6016 11.4195 17.6969 11.3637C18.2529 11.0406 18.8055 10.7107 19.3589 10.3834C19.3712 10.4504 19.3939 10.5174 19.3939 10.5853C19.3957 11.9943 19.4 13.4034 19.3895 14.8117V14.8134ZM9.95139 11.4917H12.0454C12.0454 11.862 12.0602 12.216 12.0357 12.5674C12.0287 12.6628 11.9028 12.7496 11.8311 12.8407C11.6318 12.8518 11.4316 12.869 11.2322 12.8724C10.8782 12.8767 10.5241 12.8724 10.17 12.8724C10.01 12.7745 9.94002 12.6387 9.94789 12.448C9.96013 12.1421 9.95139 11.8337 9.95139 11.4917ZM19.9552 8.43728C19.7323 8.5567 19.5216 8.69761 19.3056 8.82907L17.3839 9.95719C17.1837 10.0929 16.966 10.1393 16.7203 10.1282C16.3592 10.1118 15.9972 10.1282 15.6353 10.1308C14.9507 10.1308 14.2652 10.1308 13.5806 10.1308H11.0014C10.1857 10.1308 9.3691 10.1308 8.55337 10.1308C7.9702 10.1308 7.38704 10.1308 6.80475 10.1308C6.16388 10.1308 5.52214 10.1308 4.88127 10.1308C4.13899 9.69772 3.39583 9.26382 2.65354 8.83079C2.45682 8.7062 2.25573 8.58849 2.066 8.45532C1.99956 8.40806 1.91562 8.323 1.91475 8.25513C1.906 7.05483 1.90775 5.85453 1.90775 4.61729H2.51977C3.10293 4.61729 3.68522 4.61729 4.26838 4.61729H5.97328C6.64388 4.61729 7.31447 4.61729 7.98419 4.61729H10.1262C10.8694 4.61729 11.6126 4.61729 12.3557 4.61729C12.9966 4.61729 13.6383 4.61729 14.2792 4.61729H16.5087C17.3244 4.61729 18.141 4.61729 18.9568 4.61729H20.0794C20.0855 4.68946 20.0934 4.74359 20.0934 4.79858C20.0934 5.92842 20.0925 7.05741 20.0969 8.18725C20.0969 8.30668 20.068 8.37713 19.9552 8.43728Z" fill="#0A66BE"/>
</g>
</g>
<defs>
<clipPath id="clip0_866_8172">
<rect x="0.5" y="0.5" width="21" height="16.5" rx="4" fill="white"/>
</clipPath>
</defs>
</svg>
