<svg width="21" height="20" viewBox="0 0 21 20" fill="none" xmlns="http://www.w3.org/2000/svg">
<g id="Calendar">
<path id="Shape" d="M8.22895 10.997C8.64232 10.997 8.97743 10.6619 8.97743 10.2485C8.97743 9.83511 8.64232 9.5 8.22895 9.5C7.81558 9.5 7.48047 9.83511 7.48047 10.2485C7.48047 10.6619 7.81558 10.997 8.22895 10.997ZM8.97743 12.7485C8.97743 13.1619 8.64232 13.497 8.22895 13.497C7.81558 13.497 7.48047 13.1619 7.48047 12.7485C7.48047 12.3351 7.81558 12 8.22895 12C8.64232 12 8.97743 12.3351 8.97743 12.7485ZM10.9809 10.997C11.3943 10.997 11.7294 10.6619 11.7294 10.2485C11.7294 9.83511 11.3943 9.5 10.9809 9.5C10.5675 9.5 10.2324 9.83511 10.2324 10.2485C10.2324 10.6619 10.5675 10.997 10.9809 10.997ZM11.7294 12.7485C11.7294 13.1619 11.3943 13.497 10.9809 13.497C10.5675 13.497 10.2324 13.1619 10.2324 12.7485C10.2324 12.3351 10.5675 12 10.9809 12C11.3943 12 11.7294 12.3351 11.7294 12.7485ZM13.729 10.997C14.1423 10.997 14.4774 10.6619 14.4774 10.2485C14.4774 9.83511 14.1423 9.5 13.729 9.5C13.3156 9.5 12.9805 9.83511 12.9805 10.2485C12.9805 10.6619 13.3156 10.997 13.729 10.997ZM16.9805 6.5C16.9805 5.11929 15.8612 4 14.4805 4H7.48047C6.09976 4 4.98047 5.11929 4.98047 6.5V13.5C4.98047 14.8807 6.09976 16 7.48047 16H14.4805C15.8612 16 16.9805 14.8807 16.9805 13.5V6.5ZM5.98047 8H15.9805V13.5C15.9805 14.3284 15.3089 15 14.4805 15H7.48047C6.65204 15 5.98047 14.3284 5.98047 13.5V8ZM7.48047 5H14.4805C15.3089 5 15.9805 5.67157 15.9805 6.5V7H5.98047V6.5C5.98047 5.67157 6.65204 5 7.48047 5Z" fill="#616161"/>
</g>
</svg>
