<svg width="21" height="20" viewBox="0 0 21 20" fill="none" xmlns="http://www.w3.org/2000/svg">
<g id="Clock">
<path id="Shape" d="M10.4883 4C13.802 4 16.4883 6.68629 16.4883 10C16.4883 13.3137 13.802 16 10.4883 16C7.17457 16 4.48828 13.3137 4.48828 10C4.48828 6.68629 7.17457 4 10.4883 4ZM10.4883 5C7.72686 5 5.48828 7.23858 5.48828 10C5.48828 12.7614 7.72686 15 10.4883 15C13.2497 15 15.4883 12.7614 15.4883 10C15.4883 7.23858 13.2497 5 10.4883 5ZM9.98981 7C10.2353 7 10.4394 7.17688 10.4818 7.41012L10.4898 7.5V10H11.9883C12.2644 10 12.4883 10.2239 12.4883 10.5C12.4883 10.7455 12.3114 10.9496 12.0782 10.9919L11.9883 11H9.98981C9.74435 11 9.5402 10.8231 9.49786 10.5899L9.48981 10.5V7.5C9.48981 7.22386 9.71367 7 9.98981 7Z" fill="#616161"/>
</g>
</svg>
