<svg width="16" height="20" viewBox="0 0 16 20" fill="none" xmlns="http://www.w3.org/2000/svg">
<g id="Group 632997">
<path id="Vector" d="M1.31362 19.6C1.0105 19.4646 0.707373 19.3347 0.50099 19.0366C0.328144 18.7863 0.201734 18.521 0.201734 18.2038C0.201734 11.8393 0.193995 9.57882 0.210764 3.21438C0.212053 2.53882 0.718982 1.94532 1.35232 1.91797C2.61771 1.86327 3.88696 1.90156 5.17041 1.90156V3.36891C4.9795 3.36891 4.7886 3.36891 4.59769 3.36891C3.87664 3.36891 3.15559 3.37438 2.43454 3.36754C1.95857 3.36207 1.60643 3.59865 1.60772 4.24002C1.61804 9.93574 1.61288 11.5303 1.61417 17.226C1.61417 17.8387 1.85796 18.0971 2.42809 18.0971C6.1417 18.0971 9.85401 18.0916 13.5676 18.104C13.9714 18.104 14.3893 17.8072 14.3841 17.241C14.3841 17.211 14.3841 17.1809 14.3841 17.1494C14.3841 11.4906 14.3841 9.93438 14.3828 4.27694C14.3828 3.91044 14.2912 3.5795 13.9223 3.44275C13.7934 3.39489 13.6489 3.37164 13.5109 3.37164C12.6337 3.3648 11.7553 3.36891 10.8627 3.36891V1.87694C10.9285 1.87284 10.9891 1.86737 11.051 1.86737C12.0933 1.86737 13.1355 1.866 14.179 1.86737C14.5866 1.86737 14.9672 1.97814 15.2858 2.25164C15.6521 2.56754 15.7953 3.01198 15.7953 3.49335C15.8004 9.6978 15.803 11.7997 15.794 18.0041C15.8004 19.3771 14.5686 19.5863 14.5544 19.6H1.31362Z" fill="#0A66BE"/>
<path id="Vector_2" d="M8.37316 0.400024C8.52021 0.44652 8.67242 0.479341 8.8143 0.542247C9.04262 0.643443 9.26061 0.770623 9.48763 0.875922C9.61533 0.936093 9.65532 1.01951 9.65403 1.16994C9.64629 2.1778 9.65016 3.18703 9.65016 4.22635C9.81526 4.22635 9.9765 4.22225 10.1377 4.22635C10.5634 4.23866 10.9891 4.24139 11.4134 4.27148C11.7191 4.29336 11.8004 4.40686 11.8004 4.72413C11.8004 4.83763 11.8004 4.95114 11.8004 5.06601V5.41336H4.13199C4.13199 5.13302 4.09974 4.84173 4.14747 4.56549C4.16811 4.44926 4.35256 4.29883 4.4751 4.28242C4.86207 4.23319 5.2542 4.23866 5.64503 4.22908C5.86432 4.22361 6.0836 4.22908 6.31965 4.22908C6.31965 3.67387 6.31965 3.1378 6.31965 2.60173C6.31965 2.11626 6.32739 1.63079 6.31449 1.14532C6.30933 0.971648 6.36996 0.874554 6.50797 0.818486C6.85625 0.674896 7.20839 0.539512 7.55924 0.400024C7.61599 0.400024 7.67404 0.400024 7.73079 0.400024H8.2016C8.25836 0.400024 8.31641 0.400024 8.37316 0.400024Z" fill="#0A66BE"/>
<path id="Vector_3" d="M3.37354 8.31934H12.6234V10.1969H3.37354V8.31934Z" fill="#0A66BE"/>
<path id="Vector_4" d="M3.38013 12.8198H12.6222V14.6933H3.38013V12.8198Z" fill="#0A66BE"/>
</g>
</svg>
