<svg width="20" height="20" viewBox="0 0 20 20" fill="none" xmlns="http://www.w3.org/2000/svg">
<g id="Icon">
<path id="Shape" d="M9 7H11C11 6.44772 10.5523 6 10 6C9.44772 6 9 6.44772 9 7ZM8 7C8 5.89543 8.89543 5 10 5C11.1046 5 12 5.89543 12 7L14.5 7C14.7761 7 15 7.22386 15 7.5C15 7.77614 14.7761 8 14.5 8H14.059L13.6158 13.1708C13.5271 14.2054 12.6614 15 11.6231 15H8.37693C7.33857 15 6.47291 14.2054 6.38424 13.1708L5.94102 8H5.5C5.22386 8 5 7.77614 5 7.5C5 7.22386 5.22386 7 5.5 7L8 7ZM11.5 10C11.5 9.72386 11.2761 9.5 11 9.5C10.7239 9.5 10.5 9.72386 10.5 10V12C10.5 12.2761 10.7239 12.5 11 12.5C11.2761 12.5 11.5 12.2761 11.5 12V10ZM9 9.5C9.27614 9.5 9.5 9.72386 9.5 10V12C9.5 12.2761 9.27614 12.5 9 12.5C8.72386 12.5 8.5 12.2761 8.5 12V10C8.5 9.72386 8.72386 9.5 9 9.5ZM7.38058 13.0854C7.42492 13.6027 7.85775 14 8.37693 14H11.6231C12.1423 14 12.5751 13.6027 12.6194 13.0854L13.0553 8H6.94469L7.38058 13.0854Z" fill="#242424"/>
</g>
</svg>
