<svg width="17" height="16" viewBox="0 0 17 16" fill="none" xmlns="http://www.w3.org/2000/svg">
<g id="Delete">
<path id="Shape" d="M7.5 3H9.5C9.5 2.44772 9.05228 2 8.5 2C7.94772 2 7.5 2.44772 7.5 3ZM6.5 3C6.5 1.89543 7.39543 1 8.5 1C9.60457 1 10.5 1.89543 10.5 3H14.5C14.7761 3 15 3.22386 15 3.5C15 3.77614 14.7761 4 14.5 4H13.9364L12.7313 12.8378C12.5624 14.0765 11.5044 15 10.2542 15H6.74578C5.49561 15 4.43762 14.0765 4.26871 12.8378L3.06355 4H2.5C2.22386 4 2 3.77614 2 3.5C2 3.22386 2.22386 3 2.5 3H6.5ZM7.5 6.5C7.5 6.22386 7.27614 6 7 6C6.72386 6 6.5 6.22386 6.5 6.5V11.5C6.5 11.7761 6.72386 12 7 12C7.27614 12 7.5 11.7761 7.5 11.5V6.5ZM10 6C10.2761 6 10.5 6.22386 10.5 6.5V11.5C10.5 11.7761 10.2761 12 10 12C9.72386 12 9.5 11.7761 9.5 11.5V6.5C9.5 6.22386 9.72386 6 10 6ZM5.25954 12.7027C5.36089 13.4459 5.99568 14 6.74578 14H10.2542C11.0043 14 11.6391 13.4459 11.7405 12.7027L12.9272 4H4.07281L5.25954 12.7027Z" fill="#0A66BE"/>
</g>
</svg>
