<svg width="20" height="20" viewBox="0 0 20 20" fill="none" xmlns="http://www.w3.org/2000/svg">
<g id="Icon">
<path id="Shape" d="M6.625 13.75H13.375C13.5821 13.75 13.75 13.9179 13.75 14.125C13.75 14.3091 13.6173 14.4622 13.4424 14.494L13.375 14.5H6.625C6.41789 14.5 6.25 14.3321 6.25 14.125C6.25 13.9409 6.38266 13.7878 6.55759 13.756L6.625 13.75H13.375H6.625ZM9.93259 4.75604L10 4.75C10.1841 4.75 10.3372 4.88266 10.369 5.05759L10.375 5.125V11.719L12.3865 9.70818C12.5167 9.57801 12.7187 9.56355 12.8649 9.66479L12.9168 9.70818C13.047 9.83836 13.0615 10.0404 12.9602 10.1866L12.9168 10.2385L10.2652 12.8902C10.135 13.0203 9.93292 13.0348 9.78677 12.9336L9.73484 12.8902L7.08318 10.2385C6.93674 10.0921 6.93674 9.85463 7.08318 9.70818C7.21336 9.57801 7.41543 9.56355 7.56158 9.66479L7.61351 9.70818L9.625 11.719V5.125C9.625 4.94091 9.75766 4.78779 9.93259 4.75604L10 4.75L9.93259 4.75604Z" fill="#242424"/>
</g>
</svg>
