<svg xmlns="http://www.w3.org/2000/svg" xmlns:xlink="http://www.w3.org/1999/xlink" width="16" height="16" viewBox="0 0 16 16">
  <defs>
    <clipPath id="clip-Edit">
      <rect width="16" height="16"/>
    </clipPath>
  </defs>
  <g id="Edit" clip-path="url(#clip-Edit)">
    <path id="Path_19028" data-name="Path 19028" d="M107.593,394.36c-.229-.118-.32-.25-.3-.434a.387.387,0,0,1,.34-.351,1.205,1.205,0,0,1,.185-.009H120.8c.038,0,.076,0,.114,0a.4.4,0,0,1,.406.331.388.388,0,0,1-.26.438.244.244,0,0,0-.035.024Z" transform="translate(-106.309 -379.043)"/>
    <path id="Path_19029" data-name="Path 19029" d="M133.575,104.126a2.6,2.6,0,0,1-.773,1.8q-3.2,3.2-6.4,6.393a.631.631,0,0,1-.293.16c-1.221.272-2.443.537-3.665.8-.4.087-.647-.159-.56-.558.264-1.222.529-2.445.8-3.665a.664.664,0,0,1,.184-.294q2.759-2.777,5.525-5.548c.323-.324.64-.654.973-.967a2.5,2.5,0,0,1,4.08,1.165C133.513,103.645,133.535,103.888,133.575,104.126Zm-9.869,4.935,2.382,2.444,5.571-5.635-2.383-2.379Zm8.6-3.767a1.726,1.726,0,0,0-2.473-2.408Zm-8.983,4.623-.544,2.473,2.472-.545Z" transform="translate(-120.196 -100.91)"/>
  </g>
</svg>
