<svg width="20" height="18" viewBox="0 0 20 18" fill="none" xmlns="http://www.w3.org/2000/svg">
<g id="Group">
<path id="Vector" d="M18.2322 8.22107C18.4519 8.22107 18.6341 8.21495 18.8151 8.22107C19.3075 8.23942 19.5906 8.4658 19.5957 8.95405C19.6035 9.75801 19.5983 10.5632 19.597 11.3672C19.597 11.8297 19.3398 12.0855 18.85 12.1148C18.501 12.1356 18.2205 12.4244 18.2218 12.7609C18.2244 13.106 18.5023 13.385 18.8461 13.4119C19.2829 13.4462 19.5893 13.6114 19.5944 14.1572C19.6035 15.1777 19.5931 16.1983 19.5996 17.2188C19.6022 17.6165 19.3075 17.9591 18.8189 17.9591C12.9511 17.9518 7.08464 17.9542 1.21684 17.9542C0.636521 17.9542 0.405169 17.734 0.405169 17.1809C0.405169 16.1395 0.410339 15.0994 0.402584 14.058C0.399999 13.735 0.689512 13.4229 1.05528 13.4119C1.53091 13.3972 1.7726 13.0999 1.76355 12.7658C1.75321 12.3547 1.53996 12.1723 1.05528 12.1185C0.679172 12.0769 0.406462 11.8309 0.406462 11.4724C0.403877 10.6134 0.416802 9.75557 0.399999 8.89776C0.393537 8.54657 0.710192 8.20761 1.13024 8.21617C1.90055 8.23086 2.67216 8.21617 3.44247 8.22351C3.58076 8.22351 3.6764 8.1868 3.77463 8.0938C6.53405 5.47512 9.29864 2.865 12.0503 0.241425C12.3282 -0.0241144 12.8607 -0.0290091 13.1334 0.245096C13.7383 0.855714 14.3793 1.43574 15.0036 2.02923C15.3009 2.3119 15.3138 2.67411 15.0139 2.95923C14.7024 3.25536 14.7929 3.87209 15.253 4.01037C15.5154 4.08869 15.7623 4.07033 15.9742 3.88066C16.2818 3.60533 16.6735 3.61267 16.9759 3.89779C17.7785 4.6577 18.5811 5.41761 19.3825 6.17752C19.6655 6.44673 19.6668 6.78813 19.3915 7.05612C19.0348 7.40365 18.6794 7.7524 18.3239 8.10115C18.2968 8.12684 18.2787 8.15988 18.2322 8.22229V8.22107ZM5.62803 8.21373C5.63449 8.21373 5.64225 8.21617 5.64871 8.21617C9.13837 8.21617 12.628 8.21862 16.1164 8.21617C16.1784 8.21617 16.256 8.18803 16.2986 8.14765C16.8415 7.63982 17.3778 7.12832 17.9207 6.61437C17.4037 6.12612 16.8854 5.64154 16.3762 5.14962C16.2922 5.06886 16.2263 5.06763 16.1229 5.097C15.9536 5.14717 15.7778 5.18144 15.6046 5.21937C14.7464 5.41027 13.9166 4.91957 13.6413 4.14987C13.463 3.65183 13.5573 3.16603 13.7706 2.68635C13.4319 2.36574 13.0843 2.05492 12.7612 1.72331C12.6164 1.57524 12.5414 1.60461 12.4083 1.73065C10.1969 3.83171 7.98032 5.92788 5.76503 8.0265C5.71592 8.073 5.67068 8.12562 5.62415 8.17579C5.61381 8.18558 5.60347 8.19659 5.59313 8.20638C5.60477 8.20761 5.6151 8.21005 5.62674 8.21128L5.62803 8.21373ZM1.81525 9.52551L1.78165 9.56222C1.78035 10.0284 1.7726 10.4947 1.78165 10.9609C1.78294 11.0245 1.85532 11.1028 1.91736 11.1444C2.14225 11.2974 2.4072 11.4088 2.59849 11.5911C3.00432 11.9753 3.21241 12.4367 3.10513 13.0069C3.025 13.4303 2.8363 13.7754 2.47182 14.0287C2.24952 14.1841 2.01558 14.3236 1.78682 14.4716V16.6522H6.525C6.53663 16.6412 6.54827 16.6302 6.56119 16.6192C6.56378 16.4308 6.57799 16.2423 6.56507 16.0551C6.5418 15.7198 6.80159 15.3992 7.14539 15.3686C7.43748 15.3429 7.83039 15.4494 7.90406 15.8813C7.94542 16.1224 7.93379 16.372 7.94542 16.618C7.95706 16.629 7.96869 16.64 7.98161 16.651C8.06045 16.6535 8.138 16.6571 8.21684 16.6571C11.4583 16.6571 14.7011 16.6571 17.9427 16.6571C18.0215 16.6571 18.099 16.6535 18.1779 16.651C18.1908 16.64 18.2037 16.629 18.2167 16.618V14.512C17.8871 14.2771 17.5575 14.0947 17.299 13.8463C16.7872 13.3532 16.6838 12.5529 17.0948 11.9325C17.3391 11.5642 17.679 11.3194 18.0861 11.1396C18.1404 11.1151 18.218 11.0612 18.218 11.0196C18.227 10.5228 18.2244 10.026 18.2244 9.52674H7.94025C7.94025 9.73599 7.95059 9.93667 7.93767 10.1374C7.91182 10.5595 7.66754 10.7969 7.21389 10.8153C6.86363 10.83 6.57024 10.513 6.56895 10.1447C6.56895 9.9379 6.56895 9.73109 6.56895 9.52429H1.81525V9.52551Z" fill="#0A66BE"/>
<path id="Vector_2" d="M5.6255 8.17804C5.62679 8.19028 5.62809 8.20129 5.62809 8.21353L5.59448 8.20863C5.60482 8.19884 5.61516 8.18783 5.6255 8.17804Z" fill="#0A66BE"/>
<path id="Vector_3" d="M6.52637 16.6521C6.538 16.6411 6.54963 16.6301 6.56256 16.6191C6.55092 16.6301 6.53929 16.6411 6.52637 16.6521Z" fill="#0A66BE"/>
<path id="Vector_4" d="M7.948 16.6191C7.95963 16.6301 7.97126 16.6411 7.98419 16.6521C7.97255 16.6411 7.96092 16.6301 7.948 16.6191Z" fill="#0A66BE"/>
<path id="Vector_5" d="M6.57414 13.079C6.57414 12.7681 6.58836 12.4573 6.57026 12.1477C6.54958 11.7745 6.87787 11.4735 7.20616 11.4674C7.60424 11.46 7.9364 11.7439 7.94157 12.1184C7.95191 12.7657 7.96484 13.4142 7.9364 14.0616C7.9196 14.4519 7.67662 14.7016 7.18289 14.7089C6.84944 14.7138 6.57673 14.3993 6.57414 14.0298C6.57285 13.7128 6.57414 13.3959 6.57414 13.0777V13.079Z" fill="#0A66BE"/>
</g>
</svg>
