<svg width="20" height="20" viewBox="0 0 20 20" fill="none" xmlns="http://www.w3.org/2000/svg">
<g id="Icon">
<path id="Shape" d="M5.97408 10.6586C5.88658 10.9203 5.6036 11.0616 5.34178 10.9743C5.07981 10.887 4.93823 10.6039 5.02555 10.3419C5.01644 10.3723 5.02592 10.3408 5.02592 10.3408C5.03145 10.3244 5.03735 10.3081 5.04339 10.2919C5.05368 10.2642 5.06847 10.226 5.08816 10.1788C5.12749 10.0844 5.18659 9.95334 5.26864 9.79787C5.4323 9.48778 5.69001 9.07538 6.06881 8.66214C6.83412 7.82726 8.08654 7 9.99989 7C11.9132 7 13.1657 7.82726 13.931 8.66214C14.3098 9.07538 14.5675 9.48778 14.7311 9.79787C14.8132 9.95334 14.8723 10.0844 14.9116 10.1788C14.9313 10.226 14.9461 10.2642 14.9564 10.2919C14.9595 10.3001 14.9698 10.3525 14.9797 10.4027C14.9887 10.4484 14.9974 10.4924 15 10.5C15 10.5 15.0835 10.8325 14.658 10.9743C14.3966 11.0615 14.1141 10.9207 14.0261 10.6598L14.0257 10.6586L14.0253 10.6575L14.0192 10.6407C14.0132 10.6244 14.003 10.5982 13.9885 10.5634C13.9595 10.4938 13.9131 10.3904 13.8468 10.2646C13.7135 10.0122 13.5025 9.67462 13.1938 9.33786C12.5841 8.67274 11.5865 8 9.99989 8C8.41324 8 7.41566 8.67274 6.80597 9.33786C6.49727 9.67462 6.28624 10.0122 6.15302 10.2646C6.08664 10.3904 6.04026 10.4938 6.01123 10.5634C5.99674 10.5982 5.98663 10.6244 5.98057 10.6407L5.97408 10.6586ZM10 9C8.89543 9 8 9.89543 8 11C8 12.1046 8.89543 13 10 13C11.1046 13 12 12.1046 12 11C12 9.89543 11.1046 9 10 9ZM9 11C9 10.4477 9.44772 10 10 10C10.5523 10 11 10.4477 11 11C11 11.5523 10.5523 12 10 12C9.44772 12 9 11.5523 9 11Z" fill="#242424"/>
</g>
</svg>
