<svg xmlns="http://www.w3.org/2000/svg" xmlns:xlink="http://www.w3.org/1999/xlink" width="16" height="16" viewBox="0 0 16 16">
  <defs>
    <clipPath id="clip-Fav_icon">
      <rect width="16" height="16"/>
    </clipPath>
  </defs>
  <g id="Fav_icon" data-name="Fav icon" clip-path="url(#clip-Fav_icon)">
    <path id="Path_4564" data-name="Path 4564" d="M1588.145,638.684c0-.489,0-.969,0-1.449a.109.109,0,0,1,.051-.082,3.213,3.213,0,0,1,3.847.876,2.849,2.849,0,0,1,.463,2.252.2.2,0,0,0,.056.194,2.961,2.961,0,0,1,.777,2.361,3.1,3.1,0,0,1-2.624,2.782,4.706,4.706,0,0,1-1.312.081v3.7l.027.029a.567.567,0,0,1,.052-.092q.778-.941,1.557-1.881a.26.26,0,0,1,.228-.107c.481.006.962,0,1.466,0-.034.046-.054.078-.078.108q-1.437,1.733-2.876,3.463a.2.2,0,0,1-.127.074c-.485.005-.971,0-1.456,0a.231.231,0,0,1-.043-.009v-6.81c.231.05.46.114.693.146a4.034,4.034,0,0,0,1.928-.085,1.76,1.76,0,0,0,.065-3.355l-.081-.031.128-.148a1.572,1.572,0,0,0,0-2.007,1.737,1.737,0,0,0-1.367-.51,2.2,2.2,0,0,0-1.272.444l-.071.049a.151.151,0,0,1-.03.006" transform="translate(-1582.749 -635.929)" fill="#0071cd"/>
  </g>
</svg>
