<svg width="12" height="12" viewBox="0 0 12 12" fill="none" xmlns="http://www.w3.org/2000/svg">
<g id="Home">
<path id="Shape" d="M5.3707 1.22235C5.73763 0.925234 6.26237 0.925233 6.6293 1.22235L10.4439 4.31119C10.7957 4.59599 11 5.02437 11 5.47694V9.99995C11 10.5522 10.5523 10.9999 10 10.9999H8.5C7.94772 10.9999 7.5 10.5522 7.5 9.99995V7.49995C7.5 7.2238 7.27614 6.99995 7 6.99995H5C4.72386 6.99995 4.5 7.2238 4.5 7.49995V9.99995C4.5 10.5522 4.05228 10.9999 3.5 10.9999H2C1.44772 10.9999 1 10.5522 1 9.99995V5.47694C1 5.02437 1.20433 4.59599 1.55606 4.31119L5.3707 1.22235Z" fill="#616161"/>
</g>
</svg>
