<svg width="14" height="14" viewBox="0 0 14 14" fill="none" xmlns="http://www.w3.org/2000/svg">
<g id="Icon">
<path id="Shape" d="M6.5 7.5C6.5 7.22386 6.72386 7 7 7C7.27614 7 7.5 7.22386 7.5 7.5V9C7.5 9.27614 7.27614 9.5 7 9.5C6.72386 9.5 6.5 9.27614 6.5 9V7.5ZM7 4.75C6.58579 4.75 6.25 5.08579 6.25 5.5C6.25 5.91421 6.58579 6.25 7 6.25C7.41421 6.25 7.75 5.91421 7.75 5.5C7.75 5.08579 7.41421 4.75 7 4.75ZM2 7C2 4.23858 4.23858 2 7 2C9.76142 2 12 4.23858 12 7C12 9.76142 9.76142 12 7 12C4.23858 12 2 9.76142 2 7ZM7 3C4.79086 3 3 4.79086 3 7C3 9.20914 4.79086 11 7 11C9.20914 11 11 9.20914 11 7C11 4.79086 9.20914 3 7 3Z" fill="#424242"/>
</g>
</svg>
