<svg width="20" height="20" viewBox="0 0 20 20" fill="none" xmlns="http://www.w3.org/2000/svg">
<g id="Group">
<path id="Vector" d="M0.401855 9.347C0.401855 7.57932 0.401855 5.81164 0.401855 4.05057C0.401855 3.65334 0.566122 3.415 0.947221 3.28921C3.7069 2.36234 6.46658 1.43546 9.23284 0.515208C9.85048 0.309972 10.4681 0.402659 11.0726 0.607896C13.7272 1.50167 16.3752 2.40868 19.0297 3.29583C19.5028 3.45473 19.5882 3.71293 19.5882 4.11016C19.6014 7.53298 19.6014 10.9558 19.5882 14.3786C19.5882 15.1267 19.3517 15.8086 18.826 16.3581C18.4318 16.7752 17.9193 17.0003 17.3805 17.1791C15.0413 17.9537 12.7087 18.7349 10.3827 19.536C9.98189 19.675 9.64679 19.5625 9.2854 19.4367C6.95282 18.6489 4.61366 17.8676 2.2745 17.0732C1.27575 16.7355 0.651541 16.0337 0.44785 14.9811C0.421567 14.842 0.401855 14.6964 0.401855 14.5507C0.401855 12.8162 0.401855 11.0816 0.401855 9.347ZM9.23284 17.8544C9.23941 17.7683 9.25255 17.7021 9.25255 17.6425C9.25255 14.3256 9.25255 11.0154 9.25255 7.69849C9.25255 7.57932 9.22627 7.51973 9.09485 7.47339C7.16965 6.8312 5.25101 6.18239 3.3258 5.53357C2.85272 5.37468 2.37306 5.21579 1.88026 5.05027C1.88026 5.12972 1.86712 5.18269 1.86712 5.23565C1.86712 8.3142 1.86712 11.3994 1.86712 14.4779C1.86712 15.0208 2.28107 15.5107 2.74101 15.663C4.88962 16.3846 7.03823 17.1063 9.23284 17.8478V17.8544ZM10.7375 7.51311V17.8279C10.7901 17.8213 10.8427 17.8147 10.8886 17.8014C12.9781 17.093 15.0676 16.3846 17.1571 15.6829C17.7878 15.471 18.1164 14.9943 18.1164 14.3323C18.1164 11.3265 18.1164 8.32082 18.1164 5.3151V5.03703C15.6392 5.87122 13.195 6.69217 10.7441 7.51311H10.7375ZM3.4835 3.99761C3.58863 4.04395 3.6412 4.07706 3.70033 4.09692C5.73724 4.77883 7.78072 5.46075 9.81763 6.13604C9.90962 6.16252 10.0213 6.16915 10.1133 6.13604C11.2172 5.77191 12.3145 5.40778 13.4118 5.03703C14.4171 4.69939 15.4224 4.36174 16.4474 4.02409C16.4146 3.99099 16.4014 3.97113 16.3817 3.96451C14.3908 3.29583 12.3999 2.61392 10.3958 1.97173C10.133 1.88566 9.79791 1.89228 9.52852 1.97173C8.25381 2.37558 6.99881 2.81915 5.73067 3.24287C4.99475 3.48783 4.25884 3.73279 3.47693 3.99761H3.4835Z" fill="#0A66BE"/>
</g>
</svg>
