<svg width="20" height="20" viewBox="0 0 20 20" fill="none" xmlns="http://www.w3.org/2000/svg">
<g id="Group">
<path id="Vector" d="M19.5999 0.976146V16.6358C19.5384 16.8551 19.4891 17.0791 19.414 17.2932C19.1069 18.167 18.5374 18.8164 17.7195 19.2379C17.1312 19.5413 16.4997 19.6018 15.8428 19.5999C11.8642 19.5872 7.88502 19.5948 3.90587 19.5914C3.62557 19.5914 3.33682 19.5948 3.06638 19.5333C2.23862 19.3457 1.5583 18.9095 1.05404 18.2129C0.677015 17.6921 0.436153 17.1122 0.411269 16.4671C0.385915 15.8144 0.412208 15.1594 0.403287 14.5058C0.397653 14.079 0.699551 13.7709 1.13573 13.7699C1.86019 13.769 2.58466 13.7699 3.30959 13.7695C3.37532 13.7695 3.44058 13.7695 3.51289 13.7695V13.5365C3.51289 10.4244 3.51289 7.31184 3.51289 4.19976C3.51289 3.1624 3.51711 2.12504 3.51477 1.08768C3.5143 0.817352 3.65421 0.615079 3.86503 0.507798C4.08194 0.397209 4.3505 0.376415 4.56226 0.542298C4.90078 0.8079 5.22287 1.09477 5.54683 1.3788C5.89146 1.68079 6.22857 1.99129 6.5746 2.29092C6.60418 2.31644 6.6948 2.31314 6.72625 2.2862C6.96665 2.08156 7.20046 1.86889 7.43428 1.65622C7.83337 1.29373 8.22917 0.926996 8.63014 0.566401C8.85034 0.368381 9.28371 0.345696 9.49734 0.527175C9.81285 0.795612 10.1209 1.07303 10.4293 1.3495C10.7979 1.67938 11.1636 2.01209 11.5299 2.34291C11.6275 2.26493 11.7172 2.20066 11.7984 2.12693C12.336 1.63921 12.8741 1.15243 13.407 0.659503C13.7957 0.299854 14.1723 0.358929 14.447 0.565928C14.6686 0.733229 14.8681 0.929831 15.0738 1.11745C15.4954 1.50168 15.9133 1.8911 16.3386 2.27107C16.3743 2.30321 16.4833 2.30794 16.5171 2.27816C17.0936 1.77153 17.6711 1.26585 18.2322 0.742209C18.5998 0.40099 18.9816 0.345223 19.2867 0.568291C19.4196 0.665174 19.4971 0.837674 19.5999 0.976146ZM13.4492 18.1727C13.4591 18.1727 13.4694 18.1722 13.4793 18.1717C13.4708 18.1623 13.4619 18.1524 13.4535 18.1429C12.8393 17.2502 12.8173 16.2346 12.8896 15.2085H1.79399C1.79399 15.6022 1.76347 15.9855 1.80197 16.3617C1.84705 16.7979 2.01185 17.2001 2.32173 17.5271C2.74946 17.9785 3.26264 18.1864 3.89179 18.1836C6.59056 18.1703 9.28934 18.1784 11.9881 18.1779C12.4755 18.1779 12.9619 18.1746 13.4492 18.1727ZM4.92895 13.7699C5.01816 13.7699 5.08671 13.7699 5.15479 13.7699C7.9038 13.7699 10.6528 13.769 13.4018 13.7728C13.546 13.7728 13.6986 13.7898 13.8328 13.8399C14.1366 13.9524 14.2751 14.1995 14.2789 14.5162C14.2859 15.0819 14.2826 15.6481 14.2808 16.2142C14.2789 16.8376 14.532 17.3357 15.0043 17.7294C15.8682 18.4501 16.9035 18.2724 17.62 17.5782C18.0195 17.1911 18.1867 16.6764 18.1867 16.1079C18.1834 11.7056 18.1848 7.30381 18.1843 2.90152C18.1843 2.84954 18.1768 2.79802 18.1702 2.71768C18.0261 2.8415 17.905 2.94311 17.7857 3.04803C17.4702 3.32592 17.1603 3.61137 16.8392 3.8817C16.6077 4.07641 16.2546 4.07972 16.0325 3.89115C15.7071 3.61468 15.3912 3.32781 15.0738 3.04236C14.7108 2.71579 14.3507 2.38639 13.9883 2.05746C13.3399 2.64065 12.6971 3.20399 12.0731 3.78765C11.8318 4.01308 11.3496 4.09343 11.0866 3.85854C10.7124 3.52394 10.3415 3.18556 9.9692 2.84859C9.68092 2.58724 9.39216 2.32637 9.0959 2.05793C8.62498 2.48185 8.16109 2.90011 7.69627 3.31741C7.47983 3.51165 7.26807 3.71204 7.04224 3.89446C6.81875 4.07499 6.46333 4.07169 6.24876 3.8921C6.02104 3.70164 5.80459 3.49747 5.58204 3.30087C5.37217 3.11561 5.15995 2.93224 4.92895 2.73044V13.7699Z" fill="#0A66BE"/>
<path id="Vector_2" d="M13.4493 18.1729C13.4442 18.162 13.4456 18.1521 13.4536 18.1431C13.462 18.1526 13.4709 18.1625 13.4794 18.172C13.4695 18.172 13.4592 18.1724 13.4493 18.1729Z" fill="#0A66BE"/>
<path id="Vector_3" d="M11.5605 11.4719C10.3115 11.4719 9.06263 11.4671 7.81372 11.4752C7.47754 11.4771 7.23621 11.3561 7.09066 11.0475C6.89957 10.6429 7.17658 10.1278 7.61981 10.0716C7.70009 10.0612 7.78132 10.0564 7.86208 10.0564C10.3289 10.0555 12.7953 10.0555 15.2621 10.0564C15.6617 10.0564 15.9373 10.2181 16.0401 10.5172C16.2054 10.9964 15.8537 11.4757 15.3635 11.4738C14.0958 11.4686 12.8281 11.4719 11.5605 11.4723V11.4719Z" fill="#0A66BE"/>
<path id="Vector_4" d="M9.90875 8.16883C9.16691 8.16883 8.42461 8.16883 7.68277 8.16883C7.42078 8.16883 7.08931 7.88007 7.04235 7.60927C6.97897 7.24395 7.15457 6.91171 7.48464 6.79167C7.56915 6.76095 7.66399 6.74536 7.75367 6.74489C9.19555 6.74205 10.6374 6.73591 12.0798 6.74725C12.4559 6.75008 12.6404 6.93345 12.7559 7.23923C12.8442 7.47222 12.7573 7.80115 12.5479 7.97932C12.3991 8.10551 12.2244 8.1608 12.0253 8.15938C11.3201 8.15418 10.6144 8.15749 9.90922 8.15749C9.90922 8.16127 9.90922 8.16505 9.90922 8.16883H9.90875Z" fill="#0A66BE"/>
</g>
</svg>
