<svg width="18" height="18" viewBox="0 0 18 18" fill="none" xmlns="http://www.w3.org/2000/svg">
<g id="Layer_1" clip-path="url(#clip0_866_8146)">
<path id="Vector" d="M8.54503 12.6435C8.19202 13.0715 7.84748 13.4887 7.50334 13.9063C6.65531 14.9358 5.82179 15.9779 4.9556 16.9918C4.22174 17.8511 3.26558 18.1715 2.16822 17.9133C1.06198 17.653 0.341429 16.9317 0.0848392 15.8242C-0.168926 14.7273 0.146163 13.7663 1.01397 13.0393C2.74635 11.5877 4.49891 10.1603 6.24299 8.72283C6.28374 8.68934 6.32247 8.65303 6.38379 8.59897C6.20385 8.42589 6.02715 8.26169 5.85689 8.09184C5.11577 7.35273 4.37868 6.60959 3.63231 5.87533C3.56131 5.80553 3.43947 5.76075 3.3378 5.75349C3.09089 5.73614 2.84156 5.74461 2.59345 5.74865C2.33363 5.75308 2.14199 5.64093 2.01047 5.42226C1.37545 4.36484 0.740434 3.30741 0.108239 2.24797C-0.0583829 1.96919 -0.0216696 1.69082 0.207082 1.46005C0.622628 1.04087 1.0406 0.623309 1.45977 0.20736C1.69135 -0.0226024 1.97013 -0.0637535 2.2477 0.102061C3.31117 0.73708 4.37222 1.37654 5.43368 2.01438C5.6471 2.14267 5.75321 2.33028 5.7516 2.58041C5.74958 2.84224 5.74474 3.10408 5.75523 3.36551C5.75845 3.44378 5.78831 3.5406 5.84156 3.59386C6.79127 4.55163 7.74622 5.50376 8.70036 6.45709C8.71851 6.47525 8.74111 6.48977 8.7758 6.5172C8.94606 6.25012 9.01989 5.96126 9.03643 5.66271C9.05337 5.35569 9.04772 5.04625 9.03562 4.73843C8.94 2.31373 10.6099 0.327989 13.014 0.0330727C13.8003 -0.0633501 14.566 0.0532449 15.2942 0.374789C15.7784 0.588613 15.8699 1.06952 15.4935 1.44956C14.7092 2.24071 13.9225 3.02904 13.1285 3.8101C13.0059 3.93073 13.0079 4.01828 13.0866 4.15303C13.3145 4.54155 13.6264 4.83001 14.0787 5.02003C14.1622 4.92441 14.2449 4.81831 14.3393 4.7235C15.078 3.98197 15.8179 3.24165 16.5594 2.50255C16.9342 2.12855 17.4143 2.22498 17.6269 2.71395C18.9357 5.72565 16.6369 9.08915 13.3541 8.96651C13.2738 8.96368 13.1935 8.96651 13.0721 8.96651C13.1342 9.03348 13.1778 9.08391 13.225 9.13111C14.52 10.4266 15.8191 11.7184 17.1093 13.0183C17.9457 13.8607 18.2043 14.8717 17.8371 15.9945C17.4664 17.1282 16.6441 17.7946 15.4657 17.9596C14.5442 18.0887 13.7256 17.8096 13.0596 17.1463C11.6092 15.7024 10.1645 14.2528 8.7169 12.8061C8.66566 12.7548 8.6116 12.7068 8.54503 12.6439V12.6435ZM13.931 1.26761C13.6147 1.26761 13.3521 1.24461 13.0947 1.27124C11.4296 1.44391 10.131 3.04316 10.2669 4.71059C10.3008 5.12855 10.2887 5.55701 10.2395 5.97417C10.154 6.70198 9.86187 7.34305 9.28454 7.82234C8.37115 8.58081 7.45211 9.33243 6.53589 10.0869C4.97255 11.3747 3.40921 12.6632 1.84546 13.951C1.41701 14.3036 1.20036 14.7571 1.24877 15.3106C1.30848 15.9896 1.74016 16.5177 2.3651 16.69C3.04207 16.8768 3.61053 16.6836 4.05512 16.1446C6.05539 13.7195 8.05404 11.2928 10.0503 8.86403C10.3266 8.52756 10.6377 8.24111 11.0331 8.05069C11.7334 7.71301 12.4786 7.66056 13.2347 7.72229C14.8541 7.85421 16.3343 6.77904 16.6809 5.19633C16.7587 4.84009 16.7999 4.47861 16.722 4.09937C16.6873 4.12439 16.67 4.13366 16.6567 4.14698C16.0075 4.79813 15.3584 5.44889 14.7104 6.10085C14.5152 6.29733 14.2909 6.37802 14.0161 6.29935C12.8235 5.95763 12.0534 5.1923 11.7048 4.00214C11.6233 3.72336 11.6935 3.49421 11.9025 3.29047C12.3209 2.88299 12.7295 2.46624 13.1427 2.05392C13.3932 1.80378 13.6441 1.55446 13.9318 1.26801L13.931 1.26761ZM9.33739 11.6752C9.38581 11.7285 9.41607 11.7636 9.44874 11.7963C10.9229 13.2708 12.3975 14.7458 13.8725 16.2196C13.9294 16.2765 13.9891 16.3309 14.0512 16.3814C14.7653 16.9583 15.8151 16.8449 16.3872 16.13C16.9366 15.4434 16.8668 14.5142 16.21 13.8558C14.7274 12.3704 13.2423 10.8873 11.7585 9.40343C11.5836 9.22861 11.4054 9.22982 11.2239 9.40706C11.2094 9.42118 11.1944 9.4345 11.1815 9.44983C10.5703 10.1869 9.9595 10.924 9.3378 11.6744L9.33739 11.6752ZM7.885 7.37129C7.81238 7.30755 7.75953 7.2664 7.71192 7.21919C6.74891 6.25698 5.79033 5.29033 4.82045 4.33498C4.6034 4.12116 4.49003 3.8916 4.51585 3.58619C4.52997 3.41957 4.5098 3.25053 4.5211 3.0835C4.52997 2.95158 4.48115 2.87855 4.36779 2.81239C3.77352 2.46341 3.18409 2.10596 2.59304 1.75174C2.39939 1.63555 2.20574 1.52016 1.99716 1.3955C1.83497 1.56172 1.68812 1.72753 1.52473 1.87519C1.41701 1.97242 1.42185 2.04585 1.49366 2.16406C1.93382 2.88461 2.36913 3.60758 2.79597 4.33619C2.87868 4.4778 2.97228 4.53065 3.13083 4.51855C3.29745 4.50604 3.4665 4.525 3.63352 4.51371C3.90907 4.49515 4.11886 4.59883 4.31131 4.7937C5.2594 5.75187 6.21555 6.70158 7.16687 7.65653C7.21811 7.70817 7.24998 7.77917 7.29839 7.85341C7.51585 7.67428 7.68489 7.53509 7.88419 7.37089L7.885 7.37129Z" fill="#0A66BE"/>
<path id="Vector_2" d="M2.8693 14.5026C3.22191 14.5002 3.49545 14.7697 3.49504 15.119C3.49464 15.4716 3.22353 15.7428 2.87334 15.7411C2.53203 15.7395 2.26333 15.4745 2.25648 15.1332C2.24962 14.7834 2.51992 14.505 2.86971 14.5026H2.8693Z" fill="#0A66BE"/>
<path id="Vector_3" d="M15.1336 14.4477C15.0925 14.7228 14.9509 14.9492 14.7189 15.0399C14.4821 15.1327 14.2509 15.1117 14.0657 14.9282C13.2988 14.1685 12.5347 13.4056 11.775 12.6382C11.5361 12.397 11.5482 12.0254 11.783 11.7882C12.0259 11.5425 12.3987 11.5312 12.6476 11.7777C13.4049 12.5281 14.1605 13.2805 14.9069 14.0422C15.0114 14.1487 15.0594 14.3109 15.1336 14.4473V14.4477Z" fill="#0A66BE"/>
</g>
<defs>
<clipPath id="clip0_866_8146">
<rect width="18" height="18" fill="white"/>
</clipPath>
</defs>
</svg>
