<svg width="18" height="20" viewBox="0 0 18 20" fill="none" xmlns="http://www.w3.org/2000/svg">
<g id="Layer_1" clip-path="url(#clip0_866_8139)">
<path id="Vector" d="M8.91988 19.1924C7.60504 19.1924 6.2902 19.2115 4.97584 19.1881C2.69547 19.1477 0.530582 17.2798 0.0887882 15.0558C-0.0712544 14.2506 0.0135586 13.4726 0.112747 12.6804C0.219122 11.8267 0.295789 10.9687 0.389227 10.1131C0.455832 9.50124 0.52627 8.88941 0.598624 8.27805C0.650375 7.83954 0.669542 7.39245 0.771125 6.96488C1.10942 5.54411 2.26709 4.59137 3.73 4.4909C3.74581 4.48995 3.7621 4.4909 3.77791 4.48852C4.006 4.45567 4.29829 4.49519 4.443 4.36854C4.57525 4.25236 4.55992 3.95811 4.58819 3.73957C4.81532 1.97598 6.07841 0.52092 7.83264 0.138586C9.52795 -0.231368 11.0637 0.122874 12.2995 1.40462C12.9971 2.12834 13.3517 3.01442 13.4116 4.01287C13.4361 4.4171 13.4279 4.39425 13.8486 4.44615C14.3422 4.50709 14.8625 4.53566 15.3139 4.71849C16.4165 5.16558 17.0404 6.04785 17.2287 7.20009C17.3825 8.14188 17.462 9.09557 17.5727 10.044C17.6925 11.0715 17.7783 12.1038 17.9345 13.126C18.3955 16.1376 16.3508 18.5658 13.6914 19.0915C13.3124 19.1662 12.9176 19.1862 12.5299 19.19C11.3267 19.2024 10.1236 19.1943 8.92036 19.1943C8.92036 19.1938 8.92036 19.1934 8.92036 19.1924H8.91988ZM8.98073 17.7807C10.1681 17.7807 11.355 17.7831 12.5424 17.7788C12.7968 17.7778 13.0585 17.785 13.3038 17.7312C15.0839 17.3426 16.496 15.9428 16.3992 13.985C16.3504 12.9927 16.2076 12.0052 16.1007 11.0163C16.0173 10.2473 15.9229 9.47933 15.8348 8.71038C15.7825 8.25568 15.7648 7.79478 15.6762 7.34769C15.5257 6.58541 14.956 6.20355 14.2569 6.04119C13.8477 5.94596 13.4059 5.97548 12.9784 5.97358C11.5285 5.96691 10.078 5.97024 8.62807 5.9712C7.09904 5.97215 5.57001 5.96691 4.04098 5.98072C3.15068 5.98881 2.39551 6.63445 2.26949 7.51148C2.14922 8.34709 2.07782 9.18937 1.98582 10.0288C1.84974 11.2686 1.71653 12.509 1.57661 13.7483C1.50665 14.3678 1.57134 14.9715 1.84446 15.531C2.54693 16.9689 3.70556 17.744 5.32371 17.775C6.54224 17.7988 7.76173 17.7797 8.98073 17.7797V17.7807ZM8.9769 4.43853C9.82887 4.43853 10.6803 4.43996 11.5323 4.43758C11.7896 4.4371 11.8845 4.34854 11.8596 4.11571C11.7815 3.39294 11.5179 2.75064 10.9626 2.25928C10.2453 1.62364 9.39761 1.44223 8.45604 1.55746C7.19966 1.71077 6.11386 2.92824 6.13926 4.17428C6.14357 4.38473 6.21928 4.44424 6.42245 4.44234C7.27393 4.43377 8.1259 4.43853 8.97786 4.43853H8.9769Z" fill="#0A66BE"/>
<path id="Vector_2" d="M8.99305 13.027C6.77929 13.0227 4.93353 11.431 4.6489 9.36599C4.61152 9.0965 4.60098 8.81273 4.64363 8.54609C4.6973 8.21042 4.99582 8.03473 5.35807 8.05996C5.78501 8.08948 5.9992 8.26898 6.04712 8.64418C6.07826 8.887 6.08449 9.13411 6.13337 9.37313C6.42326 10.7863 7.76494 11.8085 9.38214 11.5771C10.9251 11.3567 11.8618 10.2806 11.9126 8.72226C11.9265 8.29422 12.1934 8.06044 12.6707 8.05758C13.0876 8.05472 13.3449 8.29517 13.3669 8.70798C13.4675 10.5887 12.0693 12.3985 10.1517 12.8675C9.99787 12.9051 9.84214 12.9417 9.68497 12.9608C9.41711 12.9941 9.14686 13.0132 8.99257 13.0274L8.99305 13.027Z" fill="#0A66BE"/>
</g>
<defs>
<clipPath id="clip0_866_8139">
<rect width="18" height="19.2" fill="white"/>
</clipPath>
</defs>
</svg>
