<svg width="18" height="20" viewBox="0 0 18 20" fill="none" xmlns="http://www.w3.org/2000/svg">
<g id="Group">
<path id="Vector" d="M17.395 6.72444C17.395 7.55673 17.413 8.37987 17.395 9.21216C17.359 10.3005 17.2148 11.3706 16.8904 12.4133C16.5029 13.648 15.9351 14.7913 15.1511 15.8065C14.5383 16.6022 13.8174 17.2973 13.0063 17.8918C12.0691 18.5777 11.0327 19.0533 9.95134 19.4375C9.18534 19.7027 8.43736 19.6295 7.68939 19.3186C6.72514 18.9161 5.83297 18.3857 5.02192 17.7363C4.32801 17.1875 3.71522 16.5564 3.1655 15.8613C2.57073 15.1205 2.08409 14.3248 1.67856 13.4651C1.29106 12.6236 1.02071 11.7456 0.82245 10.8402C0.633204 10.0079 0.597157 9.16643 0.597157 8.325C0.597157 6.98053 0.61518 5.63606 0.597157 4.29159C0.588145 3.60563 0.840473 3.42271 1.41722 3.39527C2.58875 3.33125 3.71522 3.06602 4.80564 2.6453C5.73384 2.2886 6.61699 1.8313 7.45509 1.29168C7.83358 1.04474 8.22108 0.797793 8.58155 0.523412C8.8519 0.322199 9.23941 0.395367 9.43767 0.541704C10.2487 1.17278 11.1319 1.69411 12.0421 2.15141C13.0604 2.66359 14.1328 3.02943 15.2502 3.23979C15.7639 3.33125 16.2866 3.36784 16.8093 3.41357C17.1157 3.441 17.395 3.76112 17.395 4.11781C17.395 4.98669 17.395 5.84642 17.395 6.71529V6.72444ZM1.95793 4.73974C1.95793 6.13909 1.95793 7.52014 1.95793 8.91034C1.95793 9.31277 1.98496 9.7152 2.04805 10.1085C2.17421 10.9316 2.3995 11.7365 2.72393 12.5139C3.35475 14.0138 4.26493 15.2943 5.48152 16.3552C6.28356 17.0595 7.16671 17.6174 8.14899 18.0381C8.52748 18.2027 8.91499 18.3216 9.32051 18.1936C9.74407 18.0564 10.1676 17.9101 10.5822 17.7271C11.8078 17.1784 12.8801 16.401 13.7633 15.3675C14.4121 14.6083 14.9258 13.7669 15.3133 12.8431C15.7819 11.709 16.0252 10.52 16.0523 9.30362C16.0883 7.8494 16.0523 6.38603 16.0703 4.93181C16.0703 4.78547 16.0072 4.74889 15.8901 4.73974C15.5566 4.69401 15.2142 4.67572 14.8898 4.60255C13.7723 4.35561 12.6999 3.99891 11.6636 3.50503C10.7804 3.08431 9.93331 2.58127 9.12226 2.02336C9.01412 1.9502 8.97807 1.95934 8.87894 2.02336C7.81556 2.7459 6.70711 3.38613 5.51756 3.86172C4.38208 4.31902 3.21957 4.62084 1.98496 4.74889L1.95793 4.73974Z" fill="#0A66BE"/>
<path id="Vector_2" d="M8.08624 11.3714C9.321 10.1183 10.5468 8.87425 11.7635 7.62108C11.9798 7.3924 12.2322 7.37411 12.4845 7.44729C12.9622 7.58449 13.0974 8.19736 12.7459 8.56325C12.0609 9.26758 11.3669 9.97192 10.6729 10.6671C9.97894 11.3714 9.28495 12.0849 8.58195 12.7893C8.23946 13.1277 7.87894 13.1369 7.53645 12.7893C6.77937 12.0209 6.02229 11.2342 5.2562 10.475C4.94976 10.1732 4.94976 9.64262 5.2562 9.39564C5.44547 9.24929 5.87808 9.20355 6.06735 9.35905C6.19353 9.46882 6.31971 9.57859 6.43688 9.6975C6.98667 10.2555 7.52744 10.8043 8.07723 11.3714H8.08624Z" fill="#0A66BE"/>
</g>
</svg>
