<svg width="18" height="18" viewBox="0 0 18 18" fill="none" xmlns="http://www.w3.org/2000/svg">
<g id="Group 632998">
<path id="Vector" d="M3.58768 2.15411C3.69527 1.22655 4.34906 0.626834 5.22631 0.610841C6.07872 0.602845 6.81527 1.06662 6.98079 2.14611C7.31182 2.14611 7.64286 2.14611 7.98217 2.14611C8.44562 2.14611 8.90906 2.14611 9.37251 2.14611C9.49665 2.14611 9.53803 2.09813 9.55458 1.99418C9.64562 1.39447 9.98493 0.962674 10.556 0.730784C11.3339 0.410936 12.2442 0.690803 12.6829 1.42645C12.807 1.62636 12.8484 1.87424 12.9477 2.13811C13.287 2.13811 13.6842 2.13811 14.0815 2.13811C14.4125 2.13811 14.7353 2.18609 15.0249 2.35401C15.4967 2.62588 15.8442 3.02569 15.8525 3.56943C15.8939 4.99275 15.8856 6.41608 15.9022 7.8314C15.9022 8.50308 15.9022 9.16677 15.9022 9.83845C15.9022 9.90242 15.9435 9.98238 15.9932 10.0304C16.647 10.6541 17.1187 11.3737 17.2925 12.2613C17.3504 12.5492 17.4084 12.845 17.4001 13.1329C17.3835 13.8685 17.2346 14.5882 16.8291 15.2199C16.6056 15.5637 16.3573 15.9076 16.0511 16.1874C15.4387 16.7711 14.7022 17.171 13.8332 17.3069C13.4277 17.3709 13.0056 17.4108 12.6001 17.3789C11.7725 17.3069 11.0111 17.019 10.3573 16.5073C10.167 16.3553 9.9932 16.1714 9.80286 16.0195C9.74493 15.9715 9.64562 15.9315 9.57113 15.9315C7.12975 15.9315 4.6801 15.9315 2.23872 15.9315C1.57665 15.9315 0.91458 15.4598 0.71596 14.892C0.649753 14.7001 0.600098 14.4922 0.600098 14.2843C0.616649 10.742 0.616649 7.19171 0.624925 3.6334C0.624925 3.0017 1.12975 2.40199 1.84148 2.22607C2.0401 2.17809 2.24699 2.1621 2.44562 2.1621C2.8263 2.15411 3.20699 2.1621 3.57941 2.1621L3.58768 2.15411ZM6.98906 3.36153C6.83182 4.38504 6.06217 4.88081 5.30906 4.91279C4.87872 4.92879 4.48975 4.76886 4.17527 4.50499C3.81941 4.20913 3.62906 3.81731 3.59596 3.35354C3.17389 3.35354 2.7601 3.35354 2.3463 3.35354C2.0732 3.35354 1.85803 3.52945 1.85803 3.8413C1.85803 7.31165 1.85803 10.79 1.85803 14.2603C1.85803 14.5162 2.06493 14.7481 2.37113 14.7481C4.37389 14.7401 6.38493 14.7481 8.38769 14.7481C8.57803 14.7481 8.77665 14.7481 8.967 14.7481C8.35458 13.0289 8.63596 11.4617 9.9601 10.1743C11.2842 8.8869 12.9063 8.65501 14.6691 9.23074C14.6691 9.21474 14.6773 9.19875 14.6773 9.19076C14.6773 7.4156 14.6773 5.64045 14.6773 3.86529C14.6773 3.55344 14.4953 3.37752 14.1808 3.36153C13.7918 3.34554 13.4029 3.36153 13.0222 3.36153C12.9808 3.36153 12.9146 3.4255 12.9063 3.46548C12.7904 4.33707 12.1118 4.84882 11.3339 4.91279C10.6718 4.96877 10.1422 4.67291 9.80286 4.12117C9.66217 3.88928 9.58769 3.62541 9.4801 3.36953H6.98906V3.36153ZM9.91044 13.1729C9.84424 14.7321 11.3173 16.3553 13.2704 16.2034C14.8098 16.0835 16.1753 14.876 16.1753 13.1729C16.1753 11.4617 14.8263 10.1663 13.047 10.1343C11.3256 10.1023 9.86079 11.5256 9.91044 13.1729ZM4.83734 2.76981C4.83734 2.92974 4.83734 3.09766 4.83734 3.25758C4.83734 3.56943 5.02768 3.67338 5.24286 3.72136C5.42493 3.76134 5.71458 3.56943 5.72286 3.36153C5.74768 2.96172 5.74768 2.55392 5.72286 2.15411C5.70631 1.9622 5.4332 1.78628 5.25113 1.81827C5.03596 1.85825 4.82079 1.93821 4.82906 2.26605C4.82906 2.43397 4.82906 2.60189 4.82906 2.76981H4.83734ZM10.7794 2.72184C10.7794 2.90575 10.7794 3.08166 10.7794 3.26558C10.7794 3.28957 10.7877 3.31355 10.796 3.33754C10.8539 3.60941 10.978 3.69737 11.3008 3.68938C11.5077 3.68138 11.6898 3.51346 11.698 3.28957C11.7063 2.93773 11.7146 2.5859 11.698 2.24206C11.6898 1.99418 11.4332 1.79428 11.1767 1.81827C10.9863 1.84225 10.7629 2.02617 10.7794 2.27405C10.7877 2.42598 10.7794 2.56991 10.7794 2.72184Z" fill="#0A66BE"/>
<path id="Vector_2" d="M12.4263 12.4691C12.4263 12.2372 12.4346 12.0053 12.4263 11.7735C12.4097 11.4536 12.658 11.2137 12.9394 11.1817C13.2042 11.1497 13.6097 11.3097 13.6263 11.6615C13.6428 11.9734 13.6594 12.2772 13.6594 12.5891C13.6594 12.709 13.6842 12.765 13.8166 12.805C14.1394 12.9009 14.4539 13.0129 14.7601 13.1408C15.0415 13.2607 15.1656 13.6046 15.0415 13.8764C14.9173 14.1563 14.5615 14.3322 14.2801 14.2363C13.8084 14.0844 13.3284 13.9244 12.8566 13.7565C12.6249 13.6765 12.3849 13.4447 12.4097 13.1248C12.4346 12.9089 12.4097 12.685 12.4097 12.4691H12.4263Z" fill="#0A66BE"/>
</g>
</svg>
