<svg width="20" height="20" viewBox="0 0 20 20" fill="none" xmlns="http://www.w3.org/2000/svg">
<g id="Icon">
<path id="Shape" d="M6.64645 6.85355C6.45118 6.65829 6.45118 6.34171 6.64645 6.14645C6.84171 5.95118 7.15829 5.95118 7.35355 6.14645L10.8536 9.64645C11.0488 9.84171 11.0488 10.1583 10.8536 10.3536L7.35355 13.8536C7.15829 14.0488 6.84171 14.0488 6.64645 13.8536C6.45118 13.6583 6.45118 13.3417 6.64645 13.1464L9.79289 10L6.64645 6.85355ZM14 6.5C14 6.22386 13.7761 6 13.5 6C13.2239 6 13 6.22386 13 6.5L13 13.5C13 13.7761 13.2239 14 13.5 14C13.7761 14 14 13.7761 14 13.5L14 6.5Z" fill="#424242"/>
</g>
</svg>
