<svg width="20" height="20" viewBox="0 0 20 20" fill="none" xmlns="http://www.w3.org/2000/svg">
<g id="Icon">
<path id="Shape" d="M10.2071 10L13.3536 6.85355C13.5488 6.65829 13.5488 6.34171 13.3536 6.14645C13.1583 5.95118 12.8417 5.95118 12.6464 6.14645L9.14645 9.64645C8.95118 9.84171 8.95118 10.1583 9.14645 10.3536L12.6464 13.8536C12.8417 14.0488 13.1583 14.0488 13.3536 13.8536C13.5488 13.6583 13.5488 13.3417 13.3536 13.1464L10.2071 10ZM7 6.5C7 6.22386 6.77614 6 6.5 6C6.22386 6 6 6.22386 6 6.5V13.5C6 13.7761 6.22386 14 6.5 14C6.77614 14 7 13.7761 7 13.5L7 6.5Z" fill="#BDBDBD"/>
</g>
</svg>
